<?xml version="1.0" encoding="utf-8"?>
<!-- Generator: Adobe Illustrator 22.1.0, SVG Export Plug-In . SVG Version: 6.00 Build 0)  -->
<svg version="1.1" id="Layer_1" xmlns="http://www.w3.org/2000/svg" xmlns:xlink="http://www.w3.org/1999/xlink" x="0px" y="0px"
	 viewBox="0 0 470 463.1" style="enable-background:new 0 0 470 463.1;" xml:space="preserve">
<style type="text/css">
	.st0{fill:#343565;}
	.st1{enable-background:new    ;}
	.st2{fill:#FFFFFF;}
	.st3{fill:#333565;}
</style>
<image style="display:none;overflow:visible;enable-background:new    ;" width="256" height="256" xlink:href="../Downloads/dataset_not_linked.png"  transform="matrix(0.75 0 0 0.75 147.8508 164.4875)">
</image>
<g>
	<path class="st0" d="M164.6,100.2c0,0,36.6-7.3,56.8,8.4l54.6-49c0,0,31.5-21.3,55.7,5.1s3.3,54.6,3.3,54.6l-88.3,88.9
		c0,0-30.4,27-67.5-4.5c0,0-21.3-7.9-29.8,8.4c-8.4,16.4,2.9,27.5,2.9,27.5s19.7,30.4,75.4,27.5c55.7-2.9,125.5-99.1,125.5-99.1
		s37.1-25.3,37.7-86.7c0,0,1.1-34.9-44.4-67.5s-101.3,6.7-101.3,6.7L164.6,100.2z"/>
	<circle class="st0" cx="355.5" cy="356.5" r="104.5"/>
	<path class="st0" d="M328.5,198.5c0,0,74.7-59,62.4-116.9"/>
	<polygon class="st0" points="293.2,233.6 341.1,187.4 323.4,175.7 282.3,217.5 	"/>
	<path class="st0" d="M245.1,20.9c0,0-7.3,3.6-80.5,79.4"/>
	<path class="st0" d="M232.2,291c0,0-36.6,7.3-56.8-8.4l-54.6,49c0,0-31.5,21.3-55.7-5.1s-3.3-54.6-3.3-54.6l88.3-88.9
		c0,0,30.4-27,67.5,4.5c0,0,21.3,7.9,29.8-8.4s-2.9-27.5-2.9-27.5S224.7,121,169,123.9s-125.4,99-125.4,99s-6.9,4.7-14.9,15.1
		c-10.4,13.5-22.5,36.8-22.8,71.6c0,0-1.1,34.9,44.4,67.5c45.7,32.6,101.3-6.7,101.3-6.7L232.2,291z"/>
	<g class="st1">
		<path class="st2" d="M343.3,367.6h-45.2V342h45.2v-45.5h25.6V342H414v25.6h-45.2v44.9h-25.6V367.6z"/>
	</g>
</g>
<image style="overflow:visible;enable-background:new    ;" width="682" height="332" xlink:href="Screen Shot 2018-10-14 at 3.49.53 PM.png"  transform="matrix(0.5 0 0 0.5 -401 361)">
</image>
<polyline class="st3" points="62.1,199.8 28.7,238 64,236.4 "/>
</svg>
