<svg xmlns="http://www.w3.org/2000/svg" viewBox="0 0 165.97 101.5"><defs><style>.cls-1,.cls-2{fill:#fff;}.cls-2{stroke:#3957ae;stroke-miterlimit:10;stroke-width:3px;}</style></defs><title>interface_icons</title><g id="Layer_2" data-name="Layer 2"><path class="cls-1" d="M133.43,54.8a16.65,16.65,0,1,0-16.65-16.65A16.66,16.66,0,0,0,133.43,54.8Z"/><path class="cls-1" d="M103.57,91.5H166a32.54,32.54,0,1,0-65.08,0Z"/><path class="cls-1" d="M32.54,54.8A16.65,16.65,0,1,0,15.89,38.15,16.66,16.66,0,0,0,32.54,54.8Z"/><path class="cls-1" d="M2.68,91.5h62.4A32.54,32.54,0,1,0,0,91.5Z"/><path class="cls-2" d="M81,44.31A21.41,21.41,0,1,0,59.58,22.9,21.4,21.4,0,0,0,81,44.31Z"/><path class="cls-2" d="M42.6,91.5h80.22a41.84,41.84,0,1,0-83.67,0Z"/><rect class="cls-1" x="32.5" y="89.5" width="101" height="12"/></g></svg>