<?xml version="1.0" encoding="UTF-8" standalone="no"?>
<!DOCTYPE svg PUBLIC "-//W3C//DTD SVG 1.1//EN" "http://www.w3.org/Graphics/SVG/1.1/DTD/svg11.dtd">
<svg version="1.1" xmlns="http://www.w3.org/2000/svg" xmlns:xlink="http://www.w3.org/1999/xlink" preserveAspectRatio="xMidYMid meet" viewBox="0 0 640 640" width="640" height="640"><defs><path d="M542.54 494.4L542.54 284.77L295.37 284.77L295.37 217.33L89.71 217.33L89.71 284.77" id="b7Lt1iuFP"></path><path d="M414.24 539.97L89.71 539.97L89.71 487.11L89.71 284.77" id="a3fuf5ysiK"></path><path d="M570.85 532.42C570.85 571.47 537.03 603.18 495.37 603.18C453.72 603.18 419.9 571.47 419.9 532.42C419.9 493.37 453.72 461.67 495.37 461.67C537.03 461.67 570.85 493.37 570.85 532.42Z" id="d19GD6csjz"></path><path d="M510.23 483.39L510.3 483.4L510.37 483.41L510.45 483.42L510.52 483.44L510.59 483.45L510.66 483.47L510.72 483.49L510.79 483.52L510.86 483.54L510.92 483.57L510.98 483.6L511.04 483.63L511.1 483.67L511.16 483.7L511.22 483.74L511.27 483.78L511.32 483.82L511.37 483.87L511.42 483.91L511.47 483.96L511.52 484.01L511.56 484.06L511.6 484.11L511.64 484.16L511.67 484.22L511.71 484.27L511.74 484.33L511.77 484.39L511.8 484.45L511.82 484.51L511.84 484.57L511.86 484.63L511.88 484.69L511.89 484.76L511.9 484.82L511.91 484.89L511.91 484.96L511.91 485.02L511.91 517.71L548.67 517.71L548.74 517.71L548.82 517.72L548.89 517.73L548.97 517.73L549.04 517.75L549.11 517.76L549.18 517.78L549.25 517.8L549.32 517.82L549.38 517.84L549.45 517.87L549.51 517.9L549.58 517.93L549.64 517.96L549.7 517.99L549.75 518.03L549.81 518.07L549.86 518.11L549.92 518.15L549.97 518.19L550.02 518.24L550.06 518.28L550.11 518.33L550.15 518.38L550.19 518.43L550.23 518.49L550.27 518.54L550.3 518.6L550.33 518.65L550.36 518.71L550.39 518.77L550.41 518.83L550.43 518.89L550.45 518.95L550.47 519.02L550.48 519.08L550.49 519.15L550.5 519.21L550.5 519.28L550.51 519.35L550.51 545.5L550.5 545.57L550.5 545.63L550.49 545.7L550.48 545.76L550.47 545.83L550.45 545.89L550.43 545.95L550.41 546.02L550.39 546.08L550.36 546.14L550.33 546.19L550.3 546.25L550.27 546.31L550.23 546.36L550.19 546.41L550.15 546.46L550.11 546.51L550.06 546.56L550.02 546.61L549.97 546.65L549.92 546.7L549.86 546.74L549.81 546.78L549.75 546.82L549.7 546.85L549.64 546.89L549.58 546.92L549.51 546.95L549.45 546.98L549.38 547.01L549.32 547.03L549.25 547.05L549.18 547.07L549.11 547.09L549.04 547.1L548.97 547.11L548.89 547.12L548.82 547.13L548.74 547.13L548.67 547.13L511.91 547.13L511.91 579.82L511.91 579.89L511.91 579.96L511.9 580.02L511.89 580.09L511.88 580.15L511.86 580.22L511.84 580.28L511.82 580.34L511.8 580.4L511.77 580.46L511.74 580.52L511.71 580.57L511.67 580.63L511.64 580.68L511.6 580.74L511.56 580.79L511.52 580.84L511.47 580.89L511.42 580.93L511.37 580.98L511.32 581.02L511.27 581.06L511.22 581.1L511.16 581.14L511.1 581.18L511.04 581.21L510.98 581.24L510.92 581.28L510.86 581.3L510.79 581.33L510.72 581.35L510.66 581.37L510.59 581.39L510.52 581.41L510.45 581.42L510.37 581.44L510.3 581.45L510.23 581.45L510.15 581.46L510.08 581.46L480.67 581.46L480.6 581.46L480.52 581.45L480.45 581.45L480.37 581.44L480.3 581.42L480.23 581.41L480.16 581.39L480.09 581.37L480.02 581.35L479.96 581.33L479.89 581.3L479.83 581.28L479.76 581.24L479.7 581.21L479.64 581.18L479.59 581.14L479.53 581.1L479.48 581.06L479.42 581.02L479.37 580.98L479.32 580.93L479.28 580.89L479.23 580.84L479.19 580.79L479.15 580.74L479.11 580.68L479.07 580.63L479.04 580.57L479.01 580.52L478.98 580.46L478.95 580.4L478.93 580.34L478.91 580.28L478.89 580.22L478.87 580.15L478.86 580.09L478.85 580.02L478.84 579.96L478.84 579.89L478.83 579.82L478.83 547.13L442.08 547.13L442 547.13L441.93 547.13L441.85 547.12L441.78 547.11L441.71 547.1L441.64 547.09L441.57 547.07L441.5 547.05L441.43 547.03L441.36 547.01L441.3 546.98L441.23 546.95L441.17 546.92L441.11 546.89L441.05 546.85L440.99 546.82L440.94 546.78L440.88 546.74L440.83 546.7L440.78 546.65L440.73 546.61L440.68 546.56L440.64 546.51L440.6 546.46L440.56 546.41L440.52 546.36L440.48 546.31L440.45 546.25L440.41 546.19L440.39 546.14L440.36 546.08L440.33 546.02L440.31 545.95L440.29 545.89L440.28 545.83L440.27 545.76L440.25 545.7L440.25 545.63L440.24 545.57L440.24 545.5L440.24 519.35L440.24 519.28L440.25 519.21L440.25 519.15L440.27 519.08L440.28 519.02L440.29 518.95L440.31 518.89L440.33 518.83L440.36 518.77L440.39 518.71L440.41 518.65L440.45 518.6L440.48 518.54L440.52 518.49L440.56 518.43L440.6 518.38L440.64 518.33L440.68 518.28L440.73 518.24L440.78 518.19L440.83 518.15L440.88 518.11L440.94 518.07L440.99 518.03L441.05 517.99L441.11 517.96L441.17 517.93L441.23 517.9L441.3 517.87L441.36 517.84L441.43 517.82L441.5 517.8L441.57 517.78L441.64 517.76L441.71 517.75L441.78 517.73L441.85 517.73L441.93 517.72L442 517.71L442.08 517.71L478.83 517.71L478.83 485.02L478.84 484.96L478.84 484.89L478.85 484.82L478.86 484.76L478.87 484.69L478.89 484.63L478.91 484.57L478.93 484.51L478.95 484.45L478.98 484.39L479.01 484.33L479.04 484.27L479.07 484.22L479.11 484.16L479.15 484.11L479.19 484.06L479.23 484.01L479.28 483.96L479.32 483.91L479.37 483.87L479.42 483.82L479.48 483.78L479.53 483.74L479.59 483.7L479.64 483.67L479.7 483.63L479.76 483.6L479.83 483.57L479.89 483.54L479.96 483.52L480.02 483.49L480.09 483.47L480.16 483.45L480.23 483.44L480.3 483.42L480.37 483.41L480.45 483.4L480.52 483.39L480.6 483.39L480.67 483.39L510.08 483.39L510.15 483.39L510.23 483.39Z" id="ae2ucrPcl"></path></defs><g><g><g><g><g><use xlink:href="#b7Lt1iuFP" opacity="1" fill-opacity="0" stroke="#595959" stroke-width="35" stroke-opacity="0.99"></use></g></g><g><g><use xlink:href="#a3fuf5ysiK" opacity="1" fill-opacity="0" stroke="#595959" stroke-width="35" stroke-opacity="0.99"></use></g></g></g><g><use xlink:href="#d19GD6csjz" opacity="1" fill="#595959" fill-opacity="1"></use><g><use xlink:href="#d19GD6csjz" opacity="1" fill-opacity="0" stroke="#595959" stroke-width="2" stroke-opacity="0.99"></use></g></g><g><use xlink:href="#ae2ucrPcl" opacity="1" fill="#ffffff" fill-opacity="1"></use><g><use xlink:href="#ae2ucrPcl" opacity="1" fill-opacity="0" stroke="#f9fbce" stroke-width="7" stroke-opacity="0"></use></g></g></g></g></svg>