<?xml version="1.0" encoding="utf-8"?>
<!-- Generator: Adobe Illustrator 22.1.0, SVG Export Plug-In . SVG Version: 6.00 Build 0)  -->
<svg version="1.1" id="Layer_1" xmlns="http://www.w3.org/2000/svg" xmlns:xlink="http://www.w3.org/1999/xlink" x="0px" y="0px"
	 viewBox="0 0 36 36" style="enable-background:new 0 0 36 36;" xml:space="preserve">
<style type="text/css">
	.st0{fill:#DDDDDD;}
	.st1{fill:#777777;}
	.st2{fill:#AAAAAA;}
</style>
<polyline class="st0" points="2.9,8.3 24.8,3.2 32.8,24 8.6,29.2 "/>
<g>
	<g>
		<polygon class="st1" points="6.4,22.8 8.3,29.8 26.5,25.9 22.9,26 18.7,26.7 14.9,25.4 12.3,23.8 11,22.8 11,22.8 10.7,22.2 8,24 
					"/>
	</g>
	<polygon class="st2" points="8.3,24.2 17.1,26.7 13,25 11,22.7 	"/>
	<g>
		<path class="st0" d="M24.6,3.6l7.8,20.3l-11,2.4c0,0-0.6,0.1-1.5,0.1c-2,0-5.8-0.5-9-3.9L10.5,22L10,22.5c-0.3,0.3-1.3,1-2.1,1
			c-0.2,0-0.5,0-0.8-0.8C6.2,20.3,3.9,11.2,3.2,8.6L24.6,3.6 M25,2.7L2.3,8c0,0,3,12.1,4,15c0.3,1,0.9,1.3,1.5,1.3
			c1.2,0,2.6-1.2,2.6-1.2c3.4,3.5,7.4,4.1,9.5,4.1c1,0,1.6-0.1,1.6-0.1l11.9-2.6L25,2.7L25,2.7z"/>
	</g>
	<path class="st0" d="M9.1,31.4"/>
	<path class="st2" d="M22.7,33.5"/>
</g>
<polygon class="st0" points="8,21 12.2,24.1 17.4,26.7 22.5,26.7 24.6,23.3 15,19.7 "/>
</svg>
