<?xml version="1.0" encoding="UTF-8" standalone="no"?>
<!DOCTYPE svg PUBLIC "-//W3C//DTD SVG 1.1//EN" "http://www.w3.org/Graphics/SVG/1.1/DTD/svg11.dtd">
<svg version="1.1" xmlns="http://www.w3.org/2000/svg" xmlns:xlink="http://www.w3.org/1999/xlink" preserveAspectRatio="xMidYMid meet" viewBox="0 0 640 640"><defs><path d="M673.24 50.82C673.24 50.82 673.24 50.82 673.24 50.82C673.24 373.16 673.24 552.23 673.24 588.05C673.24 588.05 673.24 588.05 673.24 588.05C244.69 588.05 6.62 588.05 -41 588.05C-41 588.05 -41 588.05 -41 588.05C-41 265.71 -41 86.63 -41 50.82C-41 50.82 -41 50.82 -41 50.82C387.54 50.82 625.62 50.82 673.24 50.82Z" id="chaUzmYiX"></path><path d="M223.08 84.39L414.83 84.39L550.42 222.35L550.42 417.45L414.83 555.4L223.08 555.4L87.49 417.45L87.49 222.35L223.08 84.39Z" id="j2muYB1guT"></path><path d="M244.29 148.94L391.04 148.94L494.81 251.38L494.81 396.26L391.04 498.7L244.29 498.7L140.53 396.26L140.53 251.38L244.29 148.94Z" id="h1iePQikXr"></path><path d="M216.78 219.3L419.91 433.82" id="fp6PaxqKY"></path><path d="M205.11 426.82L422.4 226.3" id="c1sNldguvO"></path><path d="M925.49 -18.67L925.49 -4.68" id="f63Nic9dCy"></path></defs><g><g><g><use xlink:href="#chaUzmYiX" opacity="1" fill="#ffffff" fill-opacity="0"></use><g><use xlink:href="#chaUzmYiX" opacity="1" fill-opacity="0" stroke="#0f217e" stroke-width="1" stroke-opacity="0"></use></g></g><g><use xlink:href="#j2muYB1guT" opacity="1" fill="#343468" fill-opacity="0"></use><g><use xlink:href="#j2muYB1guT" opacity="1" fill-opacity="0" stroke="#575791" stroke-width="50" stroke-opacity="1"></use></g></g><g><use xlink:href="#h1iePQikXr" opacity="1" fill="#ffffff" fill-opacity="0"></use><g><use xlink:href="#h1iePQikXr" opacity="1" fill-opacity="0" stroke="#575791" stroke-width="1.5" stroke-opacity="0"></use></g></g><g><use xlink:href="#fp6PaxqKY" opacity="1" fill="#000000" fill-opacity="0"></use><g><use xlink:href="#fp6PaxqKY" opacity="1" fill-opacity="0" stroke="#545484" stroke-width="50" stroke-opacity="1"></use></g></g><g><use xlink:href="#c1sNldguvO" opacity="1" fill="#000000" fill-opacity="0"></use><g><use xlink:href="#c1sNldguvO" opacity="1" fill-opacity="0" stroke="#4e4e87" stroke-width="50" stroke-opacity="1"></use></g></g><g><use xlink:href="#f63Nic9dCy" opacity="1" fill="#000000" fill-opacity="0"></use><g><use xlink:href="#f63Nic9dCy" opacity="1" fill-opacity="0" stroke="#484884" stroke-width="3" stroke-opacity="1"></use></g></g></g></g></svg>
