<?xml version="1.0" encoding="utf-8"?>
<!-- Generator: Adobe Illustrator 22.1.0, SVG Export Plug-In . SVG Version: 6.00 Build 0)  -->
<svg version="1.1" id="Layer_1" xmlns="http://www.w3.org/2000/svg" xmlns:xlink="http://www.w3.org/1999/xlink" x="0px" y="0px"
	 viewBox="0 0 97.7 97.5" style="enable-background:new 0 0 97.7 97.5;" xml:space="preserve">
<style type="text/css">
	.st0{fill:#343565;}
	.st1{fill:#CCCCCC;}
</style>
<title>UI3</title>
<path class="st0" d="M15.1,29.8"/>
<path class="st0" d="M14,29.1"/>
<path class="st1" d="M85.82173500459066,72.69006462457624 L61.50707887160055,48.57558394196954 C58.328131971849125,45.37759702295031 55.063270415348335,42.093188751315736 51.88432351559691,38.895211512107515 C49.56455171061865,36.64798530940022 48.27579382300548,33.450008070192 48.44762313650422,30.252030830983784 L48.44762313650422,29.387710826909206 C48.619461959096114,25.498275648479122 47.76028686432295,21.695271502475403 45.956022018027234,18.324432198414467 C42.347482816342634,11.66917494290795 35.30225274465851,7.520446667198797 27.74150620519869,7.693308732051513 C26.28090949499361,7.693308732051513 24.734398128039164,7.8661707969042265 23.273801417834086,8.211904606420656 C22.07095818697028,8.557628736126086 21.899119364378375,8.816921833405159 22.844218624994085,9.767672869906088 C25.33581974347107,12.27420184970345 27.82743037104122,14.694290117263456 30.31903148951821,17.200819097060823 L31.521884229475184,18.410863230840825 L35.64592088074915,22.559591506549975 L29.2880270812463,28.95554598496642 L29.2880270812463,28.95554598496642 L23.359716074583453,34.91934530125107 L17.946921535696312,29.73343495661463 C15.455310908126158,27.22691565662827 13.049624446398541,24.72038667683091 10.558013818828387,22.213867376844547 C9.612924067305846,21.263116340343622 9.35517058796458,21.435978405196327 9.011502451873941,22.646022538976332 C8.66782480669014,24.115359770035404 8.495995493191405,25.671137713331838 8.495995493191405,27.140474944390913 C8.324156670599503,34.74648323639836 12.448202830966636,41.83389565403666 19.063840600717587,45.46402805537667 C22.414626323060915,47.279099095952176 26.19499483824424,48.14341910002675 30.06128751927011,47.97055703517403 L30.920453104950113,47.97055703517403 C34.099409513794704,47.797694970321324 37.27835641354613,49.09417013652768 39.51220405268185,51.42782737166133 C42.69115095243327,54.62581429068055 45.956022018027234,57.91022256231513 49.13496891777865,61.10819980152334 L73.10594740558498,85.56841429364647 C76.37080896208576,89.11211566256013 81.95544232356481,89.3714184396502 85.47805735940688,86.08701016801562 C85.5639815252494,86.00056945577826 85.73581083874815,85.9141384233519 85.82173500459066,85.74127635849919 C85.90764966134005,85.65484532607283 85.90764966134005,85.65484532607283 85.99356431808941,85.56841429364647 C85.99356431808941,85.56841429364647 85.99356431808941,85.56841429364647 86.07948848393194,85.56841429364647 C86.25131779743069,85.48198326122011 86.33723245418005,85.3091211963674 86.42315662002257,85.22269016394105 C89.602103519774,81.59254808279003 89.34435004043273,75.9744825760218 85.82173500459066,72.69006462457624 z"/>
<polygon class="st1" points="31.70180892944336,14.965160369873047 31.70180892944336,27.865161895751953 39.501808166503906,20.065160751342773 "/>
<polyline class="st1" points="15.33258056640625,30.59954833984375 27.732580184936523,30.59954833984375 18.732580184936523,39.59954833984375 13.732580184936523,34.59954833984375 "/>
</svg>
