<?xml version="1.0" encoding="utf-8"?>
<!-- Generator: Adobe Illustrator 19.2.1, SVG Export Plug-In . SVG Version: 6.00 Build 0)  -->
<svg version="1.1" id="Layer_1" xmlns="http://www.w3.org/2000/svg" xmlns:xlink="http://www.w3.org/1999/xlink" x="0px" y="0px"
	 viewBox="0 0 20.8 20.8" style="enable-background:new 0 0 20.8 20.8;" xml:space="preserve">
<g>
	<path d="M-26.8,21c-4.6,0-9.3,0-14,0c0-1.9,0-3.8,0-5.7c0.3,0,0.7-0.2,1-0.1c0.4,0.1,0.7,0.4,1,0.6c1,0.6,2.2,0.5,3-0.4
		c0.8-0.9,0.8-2.2,0.1-3.1c-0.7-0.9-1.9-1.2-3-0.6c-0.4,0.2-0.7,0.5-1.1,0.7c-0.4,0.2-0.8,0.3-1-0.1c0-1.7,0-3.4,0-5
		c0.4-0.2,0.8-0.5,1.3-0.6c1.1-0.3,2.3-0.5,3.4-0.7c1.2-0.3,1.3-0.6,0.8-1.7c-0.2-0.4-0.5-0.9-0.6-1.4c-0.2-1.3,0.7-2.1,1.8-2.6
		c0.3,0,0.6,0,1,0c0.2,0.1,0.5,0.2,0.7,0.3c1,0.5,1.6,2,0.8,3.3c-0.9,1.4-0.7,1.8,0.9,2.1c1,0.2,1.9,0.5,2.9,0.6
		c0.9,0.1,1.3,0.6,1.4,1.5c0.2,1.3,0.4,2.6,0.7,3.8c0.2,0.9,0.4,1,1.2,0.5c0.1,0,0.1-0.1,0.2-0.1c2-1.3,3.2-1,4.3,1.1
		c0,0.3,0,0.6,0,1c-0.1,0.1-0.1,0.2-0.2,0.3c-0.7,1.6-2.1,2-3.6,1.1c-0.3-0.2-0.6-0.4-0.9-0.6c-0.6-0.4-0.9-0.2-1,0.4
		c-0.1,0.8-0.2,1.5-0.4,2.3C-26.3,18.9-26.6,19.9-26.8,21z"/>
</g>
<g>
	<path d="M9.9,8c-1.7,0-4-0.3-6.1-1.5C3.7,6.4,3.6,6.4,3.5,6.3C1.4,5,1.4,3.2,3.5,2C5.2,1,7,0.6,8.9,0.4c2.9-0.2,5.8,0,8.4,1.4
		c0.1,0,0.2,0.1,0.3,0.2c2.1,1.3,2.1,3.1,0,4.4C15.9,7.4,13.3,8,9.9,8z"/>
	<path d="M2,14c1.3,1.9,3.3,2.4,5.4,2.8c2.9,0.5,5.8,0.4,8.6-0.6c1.2-0.4,2.3-1,3-2.2c0.3,2.7,0.3,3.6-2.2,4.7
		c-4.1,1.8-8.3,1.7-12.5,0C2.1,17.9,1.7,16.7,2,14z"/>
	<path d="M2,5.9c1.3,1.9,3.2,2.5,5.1,2.8c2.9,0.6,5.8,0.5,8.6-0.4c1.4-0.4,2.6-1,3.4-2.3c0.4,2.9,0.2,4.1-3.6,5.2
		c-3.5,1.1-7.1,1-10.6-0.3c-0.5-0.2-0.9-0.4-1.4-0.7c-1-0.6-1.7-1.5-1.5-2.8C2,7.1,2,6.6,2,5.9z"/>
	<path d="M2,10.1c1.5,1.9,3.7,2.5,6,2.8c2.7,0.4,5.3,0.2,7.9-0.7c1.2-0.4,2.3-1,3.1-2.2c0.4,2.5,0.2,3.4-1.9,4.5
		c-2,1.1-4.2,1.3-6.4,1.4c-2,0-4.1-0.2-6-1C1.8,13.7,1.8,12.8,2,10.1z"/>
</g>
</svg>
