<?xml version="1.0" encoding="utf-8"?>
<!-- Generator: Adobe Illustrator 22.1.0, SVG Export Plug-In . SVG Version: 6.00 Build 0)  -->
<svg version="1.1" id="Layer_1" xmlns="http://www.w3.org/2000/svg" xmlns:xlink="http://www.w3.org/1999/xlink" x="0px" y="0px"
	 viewBox="0 0 72 72" style="enable-background:new 0 0 72 72;" xml:space="preserve">
<style type="text/css">
	.st0{fill:none;}
	.st1{fill:#CCCCCC;}
</style>
<g>
	<path class="st0" d="M50.8,17.2c3.8-0.9,5.4-1.9,5.9-2.4C55.4,13.3,48,11,36.3,11c-5.3,0-10.5,0.5-14.5,1.4
		c-3.8,0.9-5.4,1.9-5.9,2.4c1.3,1.5,8.7,3.8,20.4,3.8C41.7,18.6,46.8,18.1,50.8,17.2z"/>
	<path class="st1" d="M13.5,43.6v10.8c0-3.3,10.2-6,22.8-6s22.8,2.7,22.8,6V43.7C39.1,51.2,19.8,46.4,13.5,43.6z"/>
	<path class="st1" d="M59.1,27.3V14.8c0,3.3-10.2,6-22.8,6c-12.6,0-22.8-2.7-22.8-6v12.4C19.8,30,39.1,34.8,59.1,27.3z"/>
	<path class="st1" d="M22.1,19.4l13.8,1.1l14.4-1.2l5.5-1.8l3.3-2.7c0-3.3-10.2-6-22.8-6c-12.6,0-22.8,2.7-22.8,6l3.8,3.1L22.1,19.4
		z M21.8,12.4c4-0.9,9.2-1.4,14.5-1.4c11.7,0,19.1,2.3,20.4,3.8c-0.5,0.5-2.1,1.5-5.9,2.4c-4,0.9-9.1,1.4-14.5,1.4
		c-11.7,0-19.1-2.3-20.4-3.8C16.4,14.3,18,13.3,21.8,12.4z"/>
	<path class="st1" d="M36.3,20.8c12.6,0,22.8-2.7,22.8-6l-3.3,2.7l-5.5,1.8l-14.4,1.2l-13.8-1.1l-4.8-1.5l-3.8-3.1
		C13.5,18.1,23.7,20.8,36.3,20.8z"/>
	<path class="st1" d="M36.3,60.4c12.6,0,22.8-2.7,22.8-6H13.5C13.5,57.7,23.7,60.4,36.3,60.4z"/>
	<path class="st1" d="M36.3,48.4c-12.6,0-22.8,2.7-22.8,6h45.6C59.1,51.1,48.9,48.4,36.3,48.4z"/>
</g>
<path class="st1" d="M13.5,28.8c3.3,1.3,21.4,8.1,45.5,0.4v13c0,0-21.4,8.7-45.5,0.2"/>
</svg>
