<?xml version="1.0" encoding="UTF-8" standalone="no"?>
<!DOCTYPE svg PUBLIC "-//W3C//DTD SVG 1.1//EN" "http://www.w3.org/Graphics/SVG/1.1/DTD/svg11.dtd">
<svg version="1.1" xmlns="http://www.w3.org/2000/svg" xmlns:xlink="http://www.w3.org/1999/xlink" preserveAspectRatio="xMidYMid meet" viewBox="0 0 640 640" ><defs><path d="M516.94 405.56C516.94 508.6 436.69 592.25 337.85 592.25C239.01 592.25 158.76 508.6 158.76 405.56C158.76 302.52 239.01 218.87 337.85 218.87C436.69 218.87 516.94 302.52 516.94 405.56Z" id="a1zx0P2aeW"></path><path d="M231.85 310.68L120.17 279.68L41.98 340.89" id="brCuzKfoQ"></path><path d="M297 141.87L258.75 54.01L138.33 24.81" id="brTZMAGdL"></path><path d="M224.03 202.48C224.03 249.9 273.6 288.4 334.65 288.4C395.69 288.4 445.26 249.9 445.26 202.48C445.26 155.05 395.69 116.55 334.65 116.55C273.6 116.55 224.03 155.05 224.03 202.48Z" id="eomuQzm9N"></path><path d="M365.59 141.87L403.85 54.01L524.27 24.81" id="d5oefo4wIA"></path><path d="M247.97 517.37L152.75 547.7L146.32 635.25" id="a4PSfdwiWc"></path><path d="M405.06 515.47L499.69 547.6L504.47 635.25" id="aRq4ORsQK"></path><path d="M427.44 309.39L539.12 278.39L617.31 339.61" id="bqurSe4ja"></path><path d="M231.59 451.89L119.91 420.89L41.72 482.11" id="brP4IskWB"></path><path d="M427.18 450.6L538.86 419.6L617.05 480.82" id="dmVveDC0r"></path></defs><g><g><g><use xlink:href="#a1zx0P2aeW" opacity="1" fill="#37567f" fill-opacity="1"></use><g><use xlink:href="#a1zx0P2aeW" opacity="1" fill-opacity="0" stroke="#7d0d3f" stroke-width="0" stroke-opacity="1"></use></g></g><g><g><use xlink:href="#brCuzKfoQ" opacity="1" fill-opacity="0" stroke="#37567f" stroke-width="60" stroke-opacity="1"></use></g></g><g><use xlink:href="#brTZMAGdL" opacity="1" fill="#ffffff" fill-opacity="0"></use><g><use xlink:href="#brTZMAGdL" opacity="1" fill-opacity="0" stroke="#37567f" stroke-width="40" stroke-opacity="1"></use></g></g><g><use xlink:href="#eomuQzm9N" opacity="1" fill="#37567f" fill-opacity="1"></use></g><g><use xlink:href="#d5oefo4wIA" opacity="1" fill="#ffffff" fill-opacity="0"></use><g><use xlink:href="#d5oefo4wIA" opacity="1" fill-opacity="0" stroke="#37567f" stroke-width="40" stroke-opacity="1"></use></g></g><g><g><use xlink:href="#a4PSfdwiWc" opacity="1" fill-opacity="0" stroke="#37567f" stroke-width="60" stroke-opacity="1"></use></g></g><g><g><use xlink:href="#aRq4ORsQK" opacity="1" fill-opacity="0" stroke="#37567f" stroke-width="60" stroke-opacity="1"></use></g></g><g><g><use xlink:href="#bqurSe4ja" opacity="1" fill-opacity="0" stroke="#37567f" stroke-width="60" stroke-opacity="1"></use></g></g><g><g><use xlink:href="#brP4IskWB" opacity="1" fill-opacity="0" stroke="#37567f" stroke-width="60" stroke-opacity="1"></use></g></g><g><g><use xlink:href="#dmVveDC0r" opacity="1" fill-opacity="0" stroke="#37567f" stroke-width="60" stroke-opacity="1"></use></g></g></g></g></svg>
