<?xml version="1.0" encoding="UTF-8" standalone="no"?>
<!DOCTYPE svg PUBLIC "-//W3C//DTD SVG 1.1//EN" "http://www.w3.org/Graphics/SVG/1.1/DTD/svg11.dtd">
<svg version="1.1" xmlns="http://www.w3.org/2000/svg" xmlns:xlink="http://www.w3.org/1999/xlink" preserveAspectRatio="xMidYMid meet" viewBox="0 0 640 640" ><defs><path d="M544.04 350.1C544.04 463.27 449.22 555.15 332.42 555.15C215.63 555.15 120.81 463.27 120.81 350.1C120.81 236.93 215.63 145.05 332.42 145.05C449.22 145.05 544.04 236.93 544.04 350.1Z" id="c2fGpAE89a"></path><path d="M436.67 418.06C447.71 418.06 456.67 427.01 456.67 438.06C456.67 445.52 456.67 447.89 456.67 455.35C456.67 466.4 447.71 475.35 436.67 475.35C390.97 475.35 273.88 475.35 228.18 475.35C217.14 475.35 208.18 466.4 208.18 455.35C208.18 447.89 208.18 445.52 208.18 438.06C208.18 427.01 217.14 418.06 228.18 418.06C273.88 418.06 390.97 418.06 436.67 418.06Z" id="k1Vft5QQX0"></path><path d="M375.87 334.63L419.32 273.22L332.42 273.22L245.53 273.22L288.97 334.63L332.42 396.05L375.87 334.63Z" id="d1cgrEqIAz"></path><path d="M365.29 209.22C368.64 209.22 371.36 211.93 371.36 215.28C371.36 229.08 371.36 264.4 371.36 278.19C371.36 281.54 368.64 284.26 365.29 284.26C351.43 284.26 315.92 284.26 302.06 284.26C298.71 284.26 296 281.54 296 278.19C296 264.4 296 229.08 296 215.28C296 211.93 298.71 209.22 302.06 209.22C315.92 209.22 351.43 209.22 365.29 209.22Z" id="c4vElcBkK"></path></defs><g><g><g><use xlink:href="#c2fGpAE89a" opacity="1" fill="#ffffff" fill-opacity="0"></use><g><use xlink:href="#c2fGpAE89a" opacity="1" fill-opacity="0" stroke="#b039db" stroke-width="44" stroke-opacity="1"></use></g></g><g><use xlink:href="#k1Vft5QQX0" opacity="1" fill="#b039db" fill-opacity="0.99"></use><g><use xlink:href="#k1Vft5QQX0" opacity="1" fill-opacity="0" stroke="#ffffff" stroke-width="2" stroke-opacity="0"></use></g></g><g><use xlink:href="#d1cgrEqIAz" opacity="1" fill="#b039db" fill-opacity="0.99"></use><g><use xlink:href="#d1cgrEqIAz" opacity="1" fill-opacity="0" stroke="#ffffff" stroke-width="2" stroke-opacity="0"></use></g></g><g><use xlink:href="#c4vElcBkK" opacity="1" fill="#b039db" fill-opacity="0.99"></use><g><use xlink:href="#c4vElcBkK" opacity="1" fill-opacity="0" stroke="#ffffff" stroke-width="2" stroke-opacity="0"></use></g></g></g></g></svg>
