<?xml version="1.0" encoding="utf-8"?>
<!-- Generator: Adobe Illustrator 19.2.1, SVG Export Plug-In . SVG Version: 6.00 Build 0)  -->
<svg version="1.1" id="Layer_1" xmlns="http://www.w3.org/2000/svg" xmlns:xlink="http://www.w3.org/1999/xlink" x="0px" y="0px"
	 viewBox="0 0 10.3 41.8" style="enable-background:new 0 0 10.3 41.8;" xml:space="preserve">
<style type="text/css">
	.st0{fill:#48494D;}
</style>
<path id="Ellipse_1_copy_2" class="st0" d="M4.9,0c2.8-0.1,5.2,2.1,5.3,4.9s-2.1,5.2-4.9,5.3S0.1,8.1,0,5.3c0-0.1,0-0.1,0-0.2
	C-0.1,2.3,2.2,0.1,4.9,0z M4.9,15.8c2.8-0.1,5.2,2.1,5.4,4.9c0.1,2.8-2.1,5.2-4.9,5.4C2.5,26.2,0.1,24,0,21.1C0,21,0,21,0,20.9
	C-0.1,18.1,2.2,15.8,4.9,15.8z M4.9,31.6c2.8-0.1,5.2,2.1,5.3,4.9s-2.1,5.2-4.9,5.3S0.1,39.7,0,36.9c0-0.1,0-0.1,0-0.2
	C-0.1,33.9,2.2,31.6,4.9,31.6z"/>
</svg>
