<?xml version="1.0" encoding="UTF-8" standalone="no"?>
<!DOCTYPE svg PUBLIC "-//W3C//DTD SVG 1.1//EN" "http://www.w3.org/Graphics/SVG/1.1/DTD/svg11.dtd">
<svg version="1.1" xmlns="http://www.w3.org/2000/svg" xmlns:xlink="http://www.w3.org/1999/xlink" preserveAspectRatio="xMidYMid meet" viewBox="0 0 640 640" width="42" height="42"><defs><path d="M522.83 416.36C533.87 416.36 542.83 407.41 542.83 396.36C542.83 330.26 542.83 151.96 542.83 85.86C542.83 74.81 533.87 65.86 522.83 65.86C435.52 65.86 193.58 65.86 106.26 65.86C95.22 65.86 86.26 74.81 86.26 85.86C86.26 151.96 86.26 330.26 86.26 396.36C86.26 407.41 95.22 416.36 106.26 416.36C193.58 416.36 435.52 416.36 522.83 416.36Z" id="aTktZRWuI"></path><path d="M474.34 107.27C485.39 107.27 494.34 116.23 494.34 127.27C494.34 133.98 494.34 134.1 494.34 140.81C494.34 151.85 485.39 160.81 474.34 160.81C406.42 160.81 222.67 160.81 154.75 160.81C143.7 160.81 134.75 151.85 134.75 140.81C134.75 134.1 134.75 133.98 134.75 127.27C134.75 116.23 143.7 107.27 154.75 107.27C222.67 107.27 406.42 107.27 474.34 107.27Z" id="f2T0F9LmQp"></path><path d="M474.34 214.34C485.39 214.34 494.34 223.3 494.34 234.34C494.34 241.05 494.34 241.17 494.34 247.88C494.34 258.92 485.39 267.88 474.34 267.88C406.42 267.88 222.67 267.88 154.75 267.88C143.7 267.88 134.75 258.92 134.75 247.88C134.75 241.17 134.75 241.05 134.75 234.34C134.75 223.3 143.7 214.34 154.75 214.34C222.67 214.34 406.42 214.34 474.34 214.34Z" id="eJSiRcLWs"></path><path d="M470.3 321.41C481.35 321.41 490.3 330.37 490.3 341.41C490.3 348.12 490.3 348.24 490.3 354.95C490.3 366 481.35 374.95 470.3 374.95C402.38 374.95 218.63 374.95 150.71 374.95C139.66 374.95 130.71 366 130.71 354.95C130.71 348.24 130.71 348.12 130.71 341.41C130.71 330.37 139.66 321.41 150.71 321.41C218.63 321.41 402.38 321.41 470.3 321.41Z" id="e1oSNTzRZ"></path></defs><g><g><g><g><use xlink:href="#aTktZRWuI" opacity="1" fill-opacity="0" stroke="#353037" stroke-width="0" stroke-opacity="1"></use></g></g><g><use xlink:href="#f2T0F9LmQp" opacity="1" fill="#6B0555" fill-opacity="1"></use><g><use xlink:href="#f2T0F9LmQp" opacity="1" fill-opacity="0" stroke="#19161a" stroke-width="1" stroke-opacity="1"></use></g></g><g><use xlink:href="#eJSiRcLWs" opacity="1" fill="#6B0555" fill-opacity="1"></use><g><use xlink:href="#eJSiRcLWs" opacity="1" fill-opacity="0" stroke="#19161a" stroke-width="1" stroke-opacity="1"></use></g></g><g><use xlink:href="#e1oSNTzRZ" opacity="1" fill="#6B0555" fill-opacity="1"></use><g><use xlink:href="#e1oSNTzRZ" opacity="1" fill-opacity="0" stroke="#19161a" stroke-width="1" stroke-opacity="1"></use></g></g></g></g></svg>
