<?xml version="1.0" encoding="UTF-8" standalone="no"?>
<!DOCTYPE svg PUBLIC "-//W3C//DTD SVG 1.1//EN" "http://www.w3.org/Graphics/SVG/1.1/DTD/svg11.dtd">
<svg version="1.1" xmlns="http://www.w3.org/2000/svg" xmlns:xlink="http://www.w3.org/1999/xlink" preserveAspectRatio="xMidYMid meet" viewBox="0 0 640 640" width="640" height="640"><defs><path d="M174.4 519.29C174.4 554.14 147.25 582.42 113.82 582.42C80.38 582.42 53.23 554.14 53.23 519.29C53.23 484.45 80.38 456.16 113.82 456.16C147.25 456.16 174.4 484.45 174.4 519.29Z" id="b4AG0dGm8M"></path><path d="M377.96 519.29C377.96 554.14 350.81 582.42 317.37 582.42C283.94 582.42 256.79 554.14 256.79 519.29C256.79 484.45 283.94 456.16 317.37 456.16C350.81 456.16 377.96 484.45 377.96 519.29Z" id="a2ohuO2Fo5"></path><path d="M586.77 519.29C586.77 554.14 559.62 582.42 526.18 582.42C492.75 582.42 465.6 554.14 465.6 519.29C465.6 484.45 492.75 456.16 526.18 456.16C559.62 456.16 586.77 484.45 586.77 519.29Z" id="eyzU2Dem"></path></defs><g><g><g><use xlink:href="#b4AG0dGm8M" opacity="1" fill="#ccc" fill-opacity="1"></use><g><use xlink:href="#b4AG0dGm8M" opacity="1" fill-opacity="0" stroke="#5c5c5c" stroke-width="0" stroke-opacity="1"></use></g></g><g><use xlink:href="#a2ohuO2Fo5" opacity="1" fill="#ccc" fill-opacity="1"></use><g><use xlink:href="#a2ohuO2Fo5" opacity="1" fill-opacity="0" stroke="#5c5c5c" stroke-width="0" stroke-opacity="1"></use></g></g><g><use xlink:href="#eyzU2Dem" opacity="1" fill="#ccc" fill-opacity="1"></use><g><use xlink:href="#eyzU2Dem" opacity="1" fill-opacity="0" stroke="#5c5c5c" stroke-width="0" stroke-opacity="1"></use></g></g></g></g></svg>
