<?xml version="1.0" encoding="utf-8"?>
<!-- Generator: Adobe Illustrator 19.2.1, SVG Export Plug-In . SVG Version: 6.00 Build 0)  -->
<svg version="1.1" id="Layer_1" xmlns="http://www.w3.org/2000/svg" xmlns:xlink="http://www.w3.org/1999/xlink" x="0px" y="0px"
	 viewBox="0 0 20.8 20.8" style="enable-background:new 0 0 20.8 20.8;" xml:space="preserve">
<style type="text/css">
	.st0{fill:#020000;}
	.st1{fill:none;stroke:#000000;stroke-width:0.6794;stroke-linecap:round;stroke-linejoin:round;}
	.st2{fill:none;stroke:#000000;stroke-width:0.9813;stroke-linecap:round;stroke-linejoin:round;}
	.st3{fill:none;stroke:#000000;stroke-width:1.1323;stroke-linecap:round;stroke-linejoin:round;}
</style>
<g>
	<path d="M-26.8,21c-4.6,0-9.3,0-14,0c0-1.9,0-3.8,0-5.7c0.3,0,0.7-0.2,1-0.1c0.4,0.1,0.7,0.4,1,0.6c1,0.6,2.2,0.5,3-0.4
		c0.8-0.9,0.8-2.2,0.1-3.1s-1.9-1.2-3-0.6c-0.4,0.2-0.7,0.5-1.1,0.7c-0.4,0.2-0.8,0.3-1-0.1c0-1.7,0-3.4,0-5
		c0.4-0.2,0.8-0.5,1.3-0.6c1.1-0.3,2.3-0.5,3.4-0.7c1.2-0.3,1.3-0.6,0.8-1.7c-0.2-0.4-0.5-0.9-0.6-1.4c-0.2-1.3,0.7-2.1,1.8-2.6
		c0.3,0,0.6,0,1,0c0.2,0.1,0.5,0.2,0.7,0.3c1,0.5,1.6,2,0.8,3.3c-0.9,1.4-0.7,1.8,0.9,2.1c1,0.2,1.9,0.5,2.9,0.6
		c0.9,0.1,1.3,0.6,1.4,1.5c0.2,1.3,0.4,2.6,0.7,3.8c0.2,0.9,0.4,1,1.2,0.5c0.1,0,0.1-0.1,0.2-0.1c2-1.3,3.2-1,4.3,1.1
		c0,0.3,0,0.6,0,1c-0.1,0.1-0.1,0.2-0.2,0.3c-0.7,1.6-2.1,2-3.6,1.1c-0.3-0.2-0.6-0.4-0.9-0.6c-0.6-0.4-0.9-0.2-1,0.4
		c-0.1,0.8-0.2,1.5-0.4,2.3C-26.3,18.9-26.6,19.9-26.8,21z"/>
</g>
<g>
	<path d="M59.9,8c-1.7,0-4-0.3-6.1-1.5c-0.1-0.1-0.2-0.1-0.3-0.2c-2.1-1.3-2.1-3.1,0-4.4c1.6-1,3.5-1.4,5.3-1.5
		c2.9-0.2,5.8,0,8.4,1.4c0.1,0,0.2,0.1,0.3,0.2c2.1,1.3,2.1,3.1,0,4.4C65.9,7.4,63.3,8,59.9,8z"/>
	<path d="M52,14c1.3,1.9,3.3,2.4,5.4,2.8c2.9,0.5,5.8,0.4,8.6-0.6c1.2-0.4,2.3-1,3-2.2c0.3,2.7,0.3,3.6-2.2,4.7
		c-4.1,1.8-8.3,1.7-12.5,0C52.1,17.9,51.7,16.7,52,14z"/>
	<path d="M52,5.9c1.3,1.9,3.2,2.5,5.1,2.8c2.9,0.6,5.8,0.5,8.6-0.4c1.4-0.4,2.6-1,3.4-2.3c0.4,2.9,0.2,4.1-3.6,5.2
		c-3.5,1.1-7.1,1-10.6-0.3c-0.5-0.2-0.9-0.4-1.4-0.7c-1-0.6-1.7-1.5-1.5-2.8C52,7.1,52,6.6,52,5.9z"/>
	<path d="M52,10.1c1.5,1.9,3.7,2.5,6,2.8c2.7,0.4,5.3,0.2,7.9-0.7c1.2-0.4,2.3-1,3.1-2.2c0.4,2.5,0.2,3.4-1.9,4.5
		c-2,1.1-4.2,1.3-6.4,1.4c-2,0-4.1-0.2-6-1C51.8,13.7,51.8,12.8,52,10.1z"/>
</g>
<g>
	<path d="M-11.9-42.1c0.4,0.3,0.8,0.6,1,1c0.5,0.8,0,1.7-0.9,2.1c-0.5,0.2-1,0.5-1.4,0.9c-1.5,1.6-3.1,3.2-4.6,4.9
		c-1.3-1.2-2.5-2.1-3.6-3.2c-1.6,1.5-3.1,3-4.6,4.5c-0.1,0.1-0.2,0.4-0.2,0.7c-0.1,0.8-0.7,1.4-1.5,1.4c-0.7,0-1.4-0.5-1.6-1.2
		c-0.2-0.8,0.1-1.5,0.9-1.9c0.4-0.2,0.7-0.4,1-0.7c1.8-1.7,3.5-3.5,5.2-5.2c0.2-0.2,0.4-0.4,0.7-0.6c1.2,1,2.3,2,3.5,3
		c1.3-1.3,2.7-2.6,4-3.9c0.1-0.1,0.1-0.4,0.2-0.5c0.4-0.5,0.7-0.9,1.1-1.4C-12.4-42.1-12.2-42.1-11.9-42.1z"/>
	<path d="M-15.3-21.3c-0.5-0.4-0.6-0.8-0.6-1.5c0-3.3,0-6.5,0-9.8c0-1,0.3-1.4,1.3-1.4c0.6,0,1.1,0,1.7,0c0.8,0,1.1,0.3,1.1,1.1
		c0,3.5,0,6.9,0,10.4c0,0.4-0.4,0.8-0.6,1.1C-13.3-21.3-14.3-21.3-15.3-21.3z"/>
	<path d="M-21.6-21.3c-0.2-0.5-0.4-1-0.4-1.5c0-2.4,0-4.8,0-7.2c0-1,0.2-1.2,1.2-1.2c0.7,0,1.4,0,2,0s1,0.3,1,1c0,2.7,0,5.3,0,8
		c0,0.3-0.3,0.7-0.4,1C-19.5-21.3-20.5-21.3-21.6-21.3z"/>
	<path d="M-27.8-21.3c-0.2-0.3-0.4-0.7-0.5-1c0-1.7,0-3.4,0-5.1c0-0.7,0.3-1,1-1c0.8,0,1.6,0,2.3,0c0.6,0,0.9,0.3,0.9,0.9
		c0,1.8,0,3.6,0,5.3c0,0.3-0.3,0.6-0.4,0.9C-25.6-21.3-26.7-21.3-27.8-21.3z"/>
</g>
<g id="Icons">
	<g>
		<path d="M39.5-37v-1.9c0-3.6-2.9-6.6-6.6-6.6c-3.6,0-6.6,2.9-6.6,6.6v1.9h-1.9v12.2h16.9V-37H39.5z M28.3-38.9
			c0-2.6,2.1-4.7,4.7-4.7s4.7,2.1,4.7,4.7v1.9h-9.4C28.3-37,28.3-38.9,28.3-38.9z M39.5-26.7H26.4v-8.4h13.1V-26.7z"/>
		<path d="M32-30.8v2.2h1.9v-2.2c0.3-0.3,0.5-0.6,0.5-1c0-0.8-0.6-1.4-1.4-1.4s-1.4,0.6-1.4,1.4C31.6-31.5,31.7-31.1,32-30.8z"/>
	</g>
</g>
<g>
	<g>
		<path d="M55.8,66.2h-2.7c-0.4,0-0.7-0.3-0.7-0.7v-5.6c0-0.4,0.3-0.7,0.7-0.7h2.8c0.4,0,0.7,0.3,0.7,0.7v5.6
			C56.6,65.9,56.2,66.2,55.8,66.2z"/>
		<path d="M61.9,66.2h-2.5c-0.5,0-0.9-0.4-0.9-0.9v-8.1c0-0.5,0.4-0.9,0.9-0.9h2.5c0.5,0,0.9,0.4,0.9,0.9v8.1
			C62.7,65.9,62.3,66.2,61.9,66.2z"/>
		<path d="M67.9,66.2h-2.3c-0.5,0-1-0.4-1-1V54.7c0-0.5,0.4-1,1-1h2.3c0.5,0,1,0.4,1,1v10.6C68.9,65.8,68.4,66.2,67.9,66.2z"/>
	</g>
	<path d="M68.2,45.6c-0.9,0-1.6,0.8-1.5,1.7l-4.1,4l-3.5-3l-6.4,6.4c-0.8,0.1-1.4,0.8-1.4,1.6c0,0.9,0.8,1.6,1.7,1.5
		c0.9-0.1,1.6-0.8,1.5-1.7c0-0.1,0-0.1,0-0.2l4.8-4.6l3.4,3l5.6-5.5h0.1c0.9,0,1.6-0.8,1.5-1.7C69.9,46.3,69.1,45.6,68.2,45.6z"/>
</g>
<g id="g4305">
	<g id="g4345">
		<g id="text2994">
			<path id="path17" d="M-30.1,43.2c-0.4,0-0.8,0.4-0.8,0.8v3.2c0,0.4,0.4,0.8,0.8,0.8h0.8v0.4h-0.8c-0.4,0-0.8,0.4-0.8,0.8v3.2
				c0,0.4,0.4,0.8,0.8,0.8h0.8v0.4h-0.8c-0.4,0-0.8,0.4-0.8,0.8v3.2c0,0.4,0.4,0.8,0.8,0.8h6.9c-0.1-0.2-0.1-0.4-0.1-0.5v-1h-6v-1.6
				c2,0,4,0,6,0v-1.6h-4.4v-0.4h4.4c0.1-0.5,0.5-0.9,1.1-0.9h3.4v-0.7c-3.5,0-7,0-10.4,0V50c3.8,0,7.6,0,11.4,0c0,0,0.1,0,0.1,0
				c0,0,0,0,0.1,0c0.4,0,0.7,0,1.1,0v0.7l1.6,1.6v-3.1c0-0.4-0.4-0.8-0.8-0.8h-0.8V48h0.8c0.4,0,0.8-0.4,0.8-0.8V44
				c0-0.4-0.4-0.8-0.8-0.8H-30.1z M-29.3,44.8h12.7v1.6c-4.2,0-8.5,0-12.7,0V44.8z M-27.8,48h9.5v0.4h-9.5V48z"/>
			<path id="path2991-1" d="M-22.6,57.8c0,0.2,0.1,0.3,0.3,0.3h4.2V60c0,0.2,0.1,0.3,0.3,0.3c0.1,0,0.2,0,0.2-0.1l4.5-4.5
				c0.1-0.1,0.1-0.3,0-0.4l-4.5-4.5c-0.1-0.1-0.3-0.1-0.4,0c-0.1,0.1-0.1,0.1-0.1,0.2V53h-4.2c-0.2,0-0.3,0.1-0.3,0.3l0,0V57.8
				L-22.6,57.8z"/>
		</g>
	</g>
</g>
<g id="layer1" transform="translate(0,-540.36218)">
	<g id="g4305_1_">
		<g id="g4345_1_" transform="translate(28,-40.00001)">
			<g id="text2994_1_">
				<path id="path17_1_" class="st0" d="M-25.8,633c-0.2,0-0.4,0.1-0.6,0.2c-0.1,0.1-0.2,0.4-0.2,0.6v3.2c0,0.2,0.1,0.4,0.2,0.6
					s0.4,0.2,0.6,0.2h0.8v0.4h-0.8c-0.2,0-0.4,0.1-0.6,0.2s-0.2,0.4-0.2,0.6v3.2c0,0.2,0.1,0.4,0.2,0.6c0.1,0.1,0.4,0.2,0.6,0.2h0.8
					v0.4h-0.8c-0.2,0-0.4,0.1-0.6,0.2s-0.2,0.4-0.2,0.6v3.2c0,0.2,0.1,0.4,0.2,0.6c0.1,0.1,0.4,0.2,0.6,0.2h9.1l-1.6-1.6H-25V645
					c2,0,4,0,6.1,0c0.1-0.1,0.1-0.3,0.2-0.4h0l1.2-1.2h-5.9V643h6.3l1.6-1.6c-3.2,0-6.4,0-9.6,0v-1.6c3.8,0,7.7,0,11.5,0
					c0,0,0,0,0.1,0c0,0,0.1,0,0.1,0c0.4,0,0.8,0,1.1,0v1.6c0,0-0.1,0-0.1,0v0.7h1.7V639c0-0.2-0.1-0.4-0.2-0.6
					c-0.1-0.1-0.4-0.2-0.6-0.2h-0.8v-0.4h0.8c0.2,0,0.4-0.1,0.6-0.2c0.1-0.1,0.2-0.4,0.2-0.6v-3.2c0-0.2-0.1-0.4-0.2-0.6
					c-0.1-0.1-0.4-0.2-0.6-0.2H-25.8z M-25,634.6h12.8v1.6c-4.2,0-8.6,0-12.8,0V634.6z M-23.4,637.8h9.6v0.4h-9.6V637.8z"/>
				<path id="path2991-1_1_" class="st0" d="M-8.6,647.6c0,0.1,0,0.2-0.1,0.2c-0.1,0.1-0.1,0.1-0.2,0.1h-4.2v2
					c0,0.1-0.1,0.2-0.2,0.3s-0.2,0-0.3-0.1l-4.5-4.5c-0.1-0.1-0.1-0.1-0.1-0.2s0-0.2,0.1-0.2l4.5-4.5c0.1-0.1,0.2-0.1,0.3-0.1
					c0.1,0,0.2,0.2,0.2,0.3v2h4.2c0.1,0,0.2,0,0.2,0.1c0.1,0.1,0.1,0.1,0.1,0.2V647.6z"/>
			</g>
		</g>
	</g>
</g>
<g id="dp_dp001" transform="matrix(1,0,0,1,-107.144,-653.872)">
	<path id="dp_path002" class="st1" d="M175.4,616.8c0,4-3.3,7.3-7.3,7.3c-4,0-7.3-3.3-7.3-7.3s3.3-7.3,7.3-7.3
		C172.1,609.5,175.4,612.8,175.4,616.8z"/>
	<path id="dp_path003" class="st2" d="M173.9,621.5l5.2,4.7"/>
	<path id="dp_path004" class="st1" d="M163.8,620h8.6"/>
	<path id="dp_path005" class="st1" d="M163.8,618.6h8.6"/>
	<path id="dp_path006" class="st1" d="M163.8,617.1h8.6"/>
	<path id="dp_path007" class="st1" d="M163.8,615.7h8.6"/>
	<path id="dp_path008" class="st3" d="M163.8,613.6h8.6"/>
</g>
<rect x="7" y="1" width="2.3" height="2.3"/>
<rect x="7" y="5" width="2.3" height="2.3"/>
<rect x="7" y="9" width="2.3" height="2.3"/>
<rect x="7" y="13" width="2.3" height="2.3"/>
<rect x="7" y="16.6" width="2.3" height="2.3"/>
<rect x="11" y="1" width="2.3" height="2.3"/>
<rect x="11" y="5" width="2.3" height="2.3"/>
<rect x="11" y="9" width="2.3" height="2.3"/>
<rect x="11" y="13" width="2.3" height="2.3"/>
<rect x="11" y="16.6" width="2.3" height="2.3"/>
</svg>
