<?xml version="1.0" encoding="utf-8"?>
<!-- Generator: Adobe Illustrator 19.2.1, SVG Export Plug-In . SVG Version: 6.00 Build 0)  -->
<svg version="1.1" id="Layer_1" xmlns="http://www.w3.org/2000/svg" xmlns:xlink="http://www.w3.org/1999/xlink" x="0px" y="0px"
	 viewBox="0 0 20.8 20.8" style="enable-background:new 0 0 20.8 20.8;" xml:space="preserve">
<style type="text/css">
	.st0{fill:none;stroke:#000000;stroke-width:0.7549;stroke-linecap:round;stroke-linejoin:round;}
	.st1{fill:none;stroke:#000000;stroke-width:1.0904;stroke-linecap:round;stroke-linejoin:round;}
	.st2{fill:none;stroke:#000000;stroke-width:1.2582;stroke-linecap:round;stroke-linejoin:round;}
</style>
<g>
	<path d="M-26.8,21c-4.6,0-9.3,0-14,0c0-1.9,0-3.8,0-5.7c0.3,0,0.7-0.2,1-0.1c0.4,0.1,0.7,0.4,1,0.6c1,0.6,2.2,0.5,3-0.4
		c0.8-0.9,0.8-2.2,0.1-3.1c-0.7-0.9-1.9-1.2-3-0.6c-0.4,0.2-0.7,0.5-1.1,0.7c-0.4,0.2-0.8,0.3-1-0.1c0-1.7,0-3.4,0-5
		c0.4-0.2,0.8-0.5,1.3-0.6c1.1-0.3,2.3-0.5,3.4-0.7c1.2-0.3,1.3-0.6,0.8-1.7c-0.2-0.4-0.5-0.9-0.6-1.4c-0.2-1.3,0.7-2.1,1.8-2.6
		c0.3,0,0.6,0,1,0c0.2,0.1,0.5,0.2,0.7,0.3c1,0.5,1.6,2,0.8,3.3c-0.9,1.4-0.7,1.8,0.9,2.1c1,0.2,1.9,0.5,2.9,0.6
		c0.9,0.1,1.3,0.6,1.4,1.5c0.2,1.3,0.4,2.6,0.7,3.8c0.2,0.9,0.4,1,1.2,0.5c0.1,0,0.1-0.1,0.2-0.1c2-1.3,3.2-1,4.3,1.1
		c0,0.3,0,0.6,0,1c-0.1,0.1-0.1,0.2-0.2,0.3c-0.7,1.6-2.1,2-3.6,1.1c-0.3-0.2-0.6-0.4-0.9-0.6c-0.6-0.4-0.9-0.2-1,0.4
		c-0.1,0.8-0.2,1.5-0.4,2.3C-26.3,18.9-26.6,19.9-26.8,21z"/>
</g>
<g>
	<path d="M59.9,8c-1.7,0-4-0.3-6.1-1.5c-0.1-0.1-0.2-0.1-0.3-0.2c-2.1-1.3-2.1-3.1,0-4.4c1.6-1,3.5-1.4,5.3-1.5
		c2.9-0.2,5.8,0,8.4,1.4c0.1,0,0.2,0.1,0.3,0.2c2.1,1.3,2.1,3.1,0,4.4C65.9,7.4,63.3,8,59.9,8z"/>
	<path d="M52,14c1.3,1.9,3.3,2.4,5.4,2.8c2.9,0.5,5.8,0.4,8.6-0.6c1.2-0.4,2.3-1,3-2.2c0.3,2.7,0.3,3.6-2.2,4.7
		c-4.1,1.8-8.3,1.7-12.5,0C52.1,17.9,51.7,16.7,52,14z"/>
	<path d="M52,5.9c1.3,1.9,3.2,2.5,5.1,2.8c2.9,0.6,5.8,0.5,8.6-0.4c1.4-0.4,2.6-1,3.4-2.3c0.4,2.9,0.2,4.1-3.6,5.2
		c-3.5,1.1-7.1,1-10.6-0.3c-0.5-0.2-0.9-0.4-1.4-0.7c-1-0.6-1.7-1.5-1.5-2.8C52,7.1,52,6.6,52,5.9z"/>
	<path d="M52,10.1c1.5,1.9,3.7,2.5,6,2.8c2.7,0.4,5.3,0.2,7.9-0.7c1.2-0.4,2.3-1,3.1-2.2c0.4,2.5,0.2,3.4-1.9,4.5
		c-2,1.1-4.2,1.3-6.4,1.4c-2,0-4.1-0.2-6-1C51.8,13.7,51.8,12.8,52,10.1z"/>
</g>
<g>
	<path d="M20.1,79.6c-1.8-1.7-3.5-3.3-4.9-4.6c-2.4,0.8-4.4,1.9-6.5,2.2c-3.3,0.4-6.6-2-7.8-5.2c-0.2-0.5-0.4-1-0.6-1.5
		c0-1,0-1.9,0-2.9c1-3.5,3.3-5.8,6.8-6.8c1,0,1.9,0,2.9,0c2.5,0.9,4.7,2.1,5.9,4.6c1.2,2.4,1.2,4.8,0,7.2c-0.5,1-0.3,1.5,0.5,2.1
		c1.6,1.3,3.1,2.6,4.7,3.9C21.3,79.5,21,79.8,20.1,79.6z M8.6,76.5c4.2,0,7.6-3.3,7.5-7.5c0-4.2-3.5-7.5-7.6-7.5
		c-4.1,0.1-7.4,3.4-7.5,7.5C1,73.2,4.4,76.5,8.6,76.5z"/>
	<path d="M8.5,66.2c-1.4,0-2.8,0-4.2,0c-0.3,0-0.6-0.4-0.9-0.7C3.7,65.3,4,65,4.3,65c2.9,0,5.7,0,8.6,0c0.3,0,0.6,0.3,0.9,0.5
		c-0.3,0.2-0.6,0.7-0.9,0.7C11.5,66.3,10,66.2,8.5,66.2z"/>
	<path d="M13.5,68c-3.3,0-6.5,0-9.8,0c0-0.1,0-0.3,0-0.4c3.3,0,6.5,0,9.8,0C13.5,67.8,13.5,67.9,13.5,68z"/>
	<path d="M13.5,69.6c-3.3,0-6.5,0-9.8,0c0-0.1,0-0.3,0-0.4c3.3,0,6.5,0,9.8,0C13.5,69.3,13.5,69.5,13.5,69.6z"/>
	<path d="M13.5,71.1c-3.3,0-6.5,0-9.8,0c0-0.2,0-0.4,0-0.5c3.3,0,6.5,0,9.8,0C13.5,70.7,13.5,70.9,13.5,71.1z"/>
	<path d="M3.7,72.3c3.3,0,6.5,0,9.8,0c0,0.1,0,0.2,0,0.3c-3.3,0-6.5,0-9.8,0C3.7,72.5,3.7,72.4,3.7,72.3z"/>
</g>
<g>
	<path d="M-11.9-42.1c0.4,0.3,0.8,0.6,1,1c0.5,0.8,0,1.7-0.9,2.1c-0.5,0.2-1,0.5-1.4,0.9c-1.5,1.6-3.1,3.2-4.6,4.9
		c-1.3-1.2-2.5-2.1-3.6-3.2c-1.6,1.5-3.1,3-4.6,4.5c-0.1,0.1-0.2,0.4-0.2,0.7c-0.1,0.8-0.7,1.4-1.5,1.4c-0.7,0-1.4-0.5-1.6-1.2
		c-0.2-0.8,0.1-1.5,0.9-1.9c0.4-0.2,0.7-0.4,1-0.7c1.8-1.7,3.5-3.5,5.2-5.2c0.2-0.2,0.4-0.4,0.7-0.6c1.2,1,2.3,2,3.5,3
		c1.3-1.3,2.7-2.6,4-3.9c0.1-0.1,0.1-0.4,0.2-0.5c0.4-0.5,0.7-0.9,1.1-1.4C-12.4-42.1-12.2-42.1-11.9-42.1z"/>
	<path d="M-15.3-21.3c-0.5-0.4-0.6-0.8-0.6-1.5c0-3.3,0-6.5,0-9.8c0-1,0.3-1.4,1.3-1.4c0.6,0,1.1,0,1.7,0c0.8,0,1.1,0.3,1.1,1.1
		c0,3.5,0,6.9,0,10.4c0,0.4-0.4,0.8-0.6,1.1C-13.3-21.3-14.3-21.3-15.3-21.3z"/>
	<path d="M-21.6-21.3c-0.2-0.5-0.4-1-0.4-1.5c0-2.4,0-4.8,0-7.2c0-1,0.2-1.2,1.2-1.2c0.7,0,1.4,0,2,0c0.6,0,1,0.3,1,1
		c0,2.7,0,5.3,0,8c0,0.3-0.3,0.7-0.4,1C-19.5-21.3-20.5-21.3-21.6-21.3z"/>
	<path d="M-27.8-21.3c-0.2-0.3-0.4-0.7-0.5-1c0-1.7,0-3.4,0-5.1c0-0.7,0.3-1,1-1c0.8,0,1.6,0,2.3,0c0.6,0,0.9,0.3,0.9,0.9
		c0,1.8,0,3.6,0,5.3c0,0.3-0.3,0.6-0.4,0.9C-25.6-21.3-26.7-21.3-27.8-21.3z"/>
</g>
<g id="Icons">
	<g>
		<path d="M39.5-37v-1.9c0-3.6-2.9-6.6-6.6-6.6c-3.6,0-6.6,2.9-6.6,6.6v1.9h-1.9v12.2h16.9V-37H39.5z M28.3-38.9
			c0-2.6,2.1-4.7,4.7-4.7s4.7,2.1,4.7,4.7v1.9h-9.4V-38.9z M39.5-26.7H26.4v-8.4h13.1V-26.7z"/>
		<path d="M32-30.8v2.2h1.9v-2.2c0.3-0.3,0.5-0.6,0.5-1c0-0.8-0.6-1.4-1.4-1.4s-1.4,0.6-1.4,1.4C31.6-31.5,31.7-31.1,32-30.8z"/>
	</g>
</g>
<g>
	<g>
		<path d="M72-31.8h-2.8c-0.4,0-0.7-0.3-0.7-0.7v-5.6c0-0.4,0.3-0.7,0.7-0.7H72c0.4,0,0.7,0.3,0.7,0.7v5.6
			C72.7-32.1,72.4-31.8,72-31.8z"/>
		<path d="M78-31.8h-2.5c-0.5,0-0.9-0.4-0.9-0.9v-8.1c0-0.5,0.4-0.9,0.9-0.9H78c0.5,0,0.9,0.4,0.9,0.9v8.1
			C78.9-32.2,78.5-31.8,78-31.8z"/>
		<path d="M84-31.8h-2.3c-0.5,0-1-0.4-1-1v-10.6c0-0.5,0.4-1,1-1H84c0.5,0,1,0.4,1,1v10.6C85-32.2,84.6-31.8,84-31.8z"/>
	</g>
	<path d="M84.4-52.4c-0.9,0-1.6,0.8-1.5,1.7l-4.1,4l-3.5-3.1l-6.4,6.4c-0.8,0.1-1.4,0.8-1.4,1.7c0,0.9,0.8,1.6,1.7,1.5
		c0.9,0,1.6-0.8,1.5-1.7c0-0.1,0-0.1,0-0.2l4.8-4.6l3.4,3l5.6-5.5c0,0,0.1,0,0.1,0c0.9,0,1.6-0.8,1.5-1.7
		C86-51.7,85.3-52.4,84.4-52.4z"/>
</g>
<g id="dp_dp001" transform="matrix(1,0,0,1,-107.144,-653.872)">
	<path id="dp_path002" class="st0" d="M122.3,629.2c0,4.5-3.6,8.1-8.1,8.1c-4.5,0-8.1-3.6-8.1-8.1c0-4.5,3.6-8.1,8.1-8.1
		C118.7,621.1,122.3,624.7,122.3,629.2z"/>
	<path id="dp_path003" class="st1" d="M120.7,634.4l5.8,5.2"/>
	<path id="dp_path004" class="st0" d="M109.4,632.8h9.5"/>
	<path id="dp_path005" class="st0" d="M109.4,631.1h9.5"/>
	<path id="dp_path006" class="st0" d="M109.4,629.6h9.5"/>
	<path id="dp_path007" class="st0" d="M109.4,627.9h9.5"/>
	<path id="dp_path008" class="st2" d="M109.4,625.7h9.5"/>
</g>
<g>
	<path d="M7.6,7.3c0-1.6,1.2-2.8,2.8-2.8s2.8,1.2,2.8,2.8s-1.2,2.8-2.8,2.8S7.6,8.9,7.6,7.3z M10.4,12.1c-4.4,0-5.7,3.1-5.7,3.1v1.6
		h11.4v-1.6C16.1,15.2,14.8,12.1,10.4,12.1z"/>
</g>
<g>
	<g>
		<circle cx="16.6" cy="6.9" r="2.4"/>
	</g>
	<g>
		<path d="M16.6,11.1c-1.1,0-2,0.3-2.7,0.8c2.2,1,3,2.8,3,3V15h3.9v-1.2C20.8,13.7,19.8,11.1,16.6,11.1z"/>
	</g>
</g>
<g>
	<g>
		<circle cx="16.6" cy="6.9" r="2.4"/>
	</g>
	<g>
		<path d="M16.6,11.1c-1.1,0-2,0.3-2.7,0.8c2.2,1,3,2.8,3,3V15h3.9v-1.2C20.8,13.7,19.8,11.1,16.6,11.1z"/>
	</g>
</g>
<g>
	<g>
		<circle cx="4.3" cy="6.9" r="2.4"/>
	</g>
	<g>
		<path d="M4.3,11.1c1.1,0,2,0.3,2.7,0.8c-2.2,1-3,2.8-3,3V15H0v-1.2C0,13.7,1,11.1,4.3,11.1z"/>
	</g>
</g>
</svg>
