<?xml version="1.0" encoding="UTF-8" standalone="no"?>
<!DOCTYPE svg PUBLIC "-//W3C//DTD SVG 1.1//EN" "http://www.w3.org/Graphics/SVG/1.1/DTD/svg11.dtd">
<svg version="1.1" xmlns="http://www.w3.org/2000/svg" xmlns:xlink="http://www.w3.org/1999/xlink" preserveAspectRatio="xMidYMid meet" viewBox="0 0 35 25" width="35" height="25"><defs><path d="M0 1.04L0 23.59L23.36 12.31L0 1.04Z" id="affGPR19j"></path><path d="M0 1.04L0 23.59L23.36 12.31L0 1.04Z" id="a9cdcodyV"></path><path d="M0 1.04L0 23.59L23.36 12.31L0 1.04Z" id="b1UiC3a81A"></path><path d="M0 1.04L0 23.59L23.36 12.31L0 1.04Z" id="a6uPuHqUg"></path><path d="M0 1.04L0 23.59L23.36 12.31L0 1.04Z" id="c7liee3RRM"></path><path d="M0 1.04L0 23.59L23.36 12.31L0 1.04Z" id="f3p7sImeCR"></path><path d="M0 1.04L0 23.59L23.36 12.31L0 1.04Z" id="d3VSH016pp"></path><path d="M0 1.04L0 23.59L23.36 12.31L0 1.04Z" id="a2AKuRuWpT"></path></defs><g><g><g><use xlink:href="#affGPR19j" opacity="1" fill="#343468" fill-opacity="1"></use><g><use xlink:href="#affGPR19j" opacity="1" fill-opacity="0" stroke="#000000" stroke-width="1" stroke-opacity="0"></use></g></g><g><use xlink:href="#a9cdcodyV" opacity="1" fill="#000000" fill-opacity="0"></use><g><use xlink:href="#a9cdcodyV" opacity="1" fill-opacity="0" stroke="#000000" stroke-width="1" stroke-opacity="0"></use></g></g><g><use xlink:href="#b1UiC3a81A" opacity="1" fill="#000000" fill-opacity="0"></use><g><use xlink:href="#b1UiC3a81A" opacity="1" fill-opacity="0" stroke="#000000" stroke-width="1" stroke-opacity="0"></use></g></g><g><use xlink:href="#a6uPuHqUg" opacity="1" fill="#000000" fill-opacity="0"></use><g><use xlink:href="#a6uPuHqUg" opacity="1" fill-opacity="0" stroke="#000000" stroke-width="1" stroke-opacity="0"></use></g></g><g><use xlink:href="#c7liee3RRM" opacity="1" fill="#000000" fill-opacity="0"></use><g><use xlink:href="#c7liee3RRM" opacity="1" fill-opacity="0" stroke="#000000" stroke-width="1" stroke-opacity="0"></use></g></g><g><use xlink:href="#f3p7sImeCR" opacity="1" fill="#000000" fill-opacity="0"></use><g><use xlink:href="#f3p7sImeCR" opacity="1" fill-opacity="0" stroke="#000000" stroke-width="1" stroke-opacity="0"></use></g></g><g><use xlink:href="#d3VSH016pp" opacity="1" fill="#000000" fill-opacity="0"></use><g><use xlink:href="#d3VSH016pp" opacity="1" fill-opacity="0" stroke="#000000" stroke-width="1" stroke-opacity="0"></use></g></g><g><use xlink:href="#a2AKuRuWpT" opacity="1" fill="#000000" fill-opacity="0"></use><g><use xlink:href="#a2AKuRuWpT" opacity="1" fill-opacity="0" stroke="#000000" stroke-width="1" stroke-opacity="0"></use></g></g></g></g></svg>
