<?xml version="1.0" encoding="utf-8"?>
<!-- Generator: Adobe Illustrator 19.2.1, SVG Export Plug-In . SVG Version: 6.00 Build 0)  -->
<svg version="1.1" id="Layer_1" xmlns="http://www.w3.org/2000/svg" xmlns:xlink="http://www.w3.org/1999/xlink" x="0px" y="0px"
	 viewBox="0 0 20.8 20.8" style="enable-background:new 0 0 20.8 20.8;" xml:space="preserve">
<g>
	<path d="M14.1,21c-4.6,0-9.3,0-14,0c0-1.9,0-3.8,0-5.7c0.3,0,0.7-0.2,1-0.1c0.4,0.1,0.7,0.4,1,0.6c1,0.6,2.2,0.5,3-0.4
		C6,14.5,6,13.2,5.3,12.3c-0.7-0.9-1.9-1.2-3-0.6c-0.4,0.2-0.7,0.5-1.1,0.7c-0.4,0.2-0.8,0.3-1-0.1c0-1.7,0-3.4,0-5
		C0.6,6.9,1,6.6,1.4,6.5c1.1-0.3,2.3-0.5,3.4-0.7C6,5.6,6.2,5.2,5.6,4.1C5.4,3.7,5.1,3.2,5,2.7C4.9,1.4,5.7,0.7,6.8,0.2
		c0.3,0,0.6,0,1,0C8,0.3,8.3,0.4,8.5,0.5c1,0.5,1.6,2,0.8,3.3c-0.9,1.4-0.7,1.8,0.9,2.1c1,0.2,1.9,0.5,2.9,0.6
		c0.9,0.1,1.3,0.6,1.4,1.5c0.2,1.3,0.4,2.6,0.7,3.8c0.2,0.9,0.4,1,1.2,0.5c0.1,0,0.1-0.1,0.2-0.1c2-1.3,3.2-1,4.3,1.1
		c0,0.3,0,0.6,0,1c-0.1,0.1-0.1,0.2-0.2,0.3c-0.7,1.6-2.1,2-3.6,1.1c-0.3-0.2-0.6-0.4-0.9-0.6c-0.6-0.4-0.9-0.2-1,0.4
		c-0.1,0.8-0.2,1.5-0.4,2.3C14.7,18.9,14.4,19.9,14.1,21z"/>
</g>
</svg>
