<?xml version="1.0" encoding="utf-8"?>
<!-- Generator: Adobe Illustrator 19.2.1, SVG Export Plug-In . SVG Version: 6.00 Build 0)  -->
<svg version="1.1" id="Layer_1" xmlns="http://www.w3.org/2000/svg" xmlns:xlink="http://www.w3.org/1999/xlink" x="0px" y="0px"
	 viewBox="0 0 26.4 26.9" style="enable-background:new 0 0 26.4 26.9;" xml:space="preserve">
<style type="text/css">
	.st0{fill:#020000;}
	.st1{fill:none;stroke:#CBD1D9;stroke-width:0.68;stroke-linecap:round;stroke-linejoin:round;}
	.st2{fill:none;stroke:#CBD1D9;stroke-width:0.98;stroke-linecap:round;stroke-linejoin:round;}
	.st3{fill:none;stroke:#CBD1D9;stroke-width:1.13;stroke-linecap:round;stroke-linejoin:round;}
	.st4{fill:#838E9D;}
	.st5{fill:#37567F;}
</style>

<g id="dp_dp001">
    <path class="st2" d="M21.424616293334868,12.061912633725752 C21.424616293334868,17.4157509035555 16.998144433332584,21.832670149501908 11.632734087262058,21.832670149501908 S1.840862622471953,17.4157509035555 1.840862622471953,12.061912633725752 S6.267334482474231,2.2911551179495957 11.632734087262058,2.2911551179495957 S21.424616293334868,6.708074363896003 21.424616293334868,12.061912633725752 z" fill="black" fill-opacity="1" stroke-opacity="1" id="svg_36" stroke="none"></path>
    <path id="dp_path002" class="st2" d="M20.721045613056617,12.06335271588921 C20.721045613056617,17.07005323163628 16.60006409860273,21.200581157127612 11.604934990173774,21.200581157127612 S2.488824367290931,17.07005323163628 2.488824367290931,12.06335271588921 S6.609805881744819,2.9261242746508067 11.604934990173774,2.9261242746508067 S20.721045613056617,7.056652200142139 20.721045613056617,12.06335271588921 z" fill="black" fill-opacity="1" stroke-opacity="1" stroke="none"></path>
    <path id="dp_path003" class="st2" d="M17.362699874774133,19.176342868858043 L24.92786754574446,26.114805992241802 " fill="black" fill-opacity="1" stroke-opacity="1" stroke="none"></path>
    <path id="dp_path008" class="st3" d="M7.380166505277157,8.103120255470277 L15.980166505277158,8.103120255470277 " fill="black" fill-opacity="1" stroke-opacity="1" stroke="none"></path>
    <path class="st3" d="M7.293804409701824,10.26296073589325 L15.893804409701822,10.26296073589325 " fill="black" fill-opacity="1" stroke="none" stroke-opacity="1" id="svg_35"></path>
    <path class="st2" d="M17.775415411239784,18.70799299817187 L25.425048785412233,25.604226223808354 " fill="black" fill-opacity="1" stroke-opacity="1" id="svg_37" stroke="none"></path>
    <path class="st3" d="M7.4076413887786865,13.387370340315103 L16.007641388778687,13.387370340315103 " fill="black" fill-opacity="1" stroke="none" stroke-opacity="1" id="svg_38"></path>
    <path class="st3" d="M7.425459505538941,15.707663134498596 L16.02545950553894,15.707663134498596 " fill="black" fill-opacity="1" stroke="none" stroke-opacity="1" id="svg_39"></path>
    <path class="st3" d="M7.390812755393981,16.164000867500306 L15.990812755393982,16.164000867500306 " fill="black" fill-opacity="1" stroke="none" stroke-opacity="1" id="svg_40"></path>
    <path class="st3" d="M7.390812893524171,13.028041610832215 L15.990812893524168,13.028041610832215 " fill="black" fill-opacity="1" stroke="none" stroke-opacity="1" id="svg_41"></path>
    <path class="st3" d="M7.295784212951659,10.694550443229675 L15.89578421295166,10.694550443229675 " fill="black" fill-opacity="1" stroke="none" stroke-opacity="1" id="svg_42"></path>
    <path class="st3" d="M7.390813005371093,7.7064148493957525 L15.990813005371095,7.7064148493957525 " fill="black" fill-opacity="1" stroke-opacity="1" stroke="none" id="svg_43"></path>
</g>
</svg>