<?xml version="1.0" encoding="utf-8"?>
<!-- Generator: Adobe Illustrator 19.2.1, SVG Export Plug-In . SVG Version: 6.00 Build 0)  -->
<svg version="1.1" id="Layer_1" xmlns="http://www.w3.org/2000/svg" xmlns:xlink="http://www.w3.org/1999/xlink" x="0px" y="0px"
	 viewBox="0 0 26.4 26.9" style="enable-background:new 0 0 26.4 26.9;" xml:space="preserve">
<style type="text/css">
	.st0{fill:#CBD1D9;}
	.st1{fill:none;stroke:#CBD1D9;stroke-width:0.68;stroke-linecap:round;stroke-linejoin:round;}
	.st2{fill:none;stroke:#CBD1D9;stroke-width:0.98;stroke-linecap:round;stroke-linejoin:round;}
	.st3{fill:none;stroke:#CBD1D9;stroke-width:1.13;stroke-linecap:round;stroke-linejoin:round;}
	.st4{fill:#838E9D;}
	.st5{fill:#37567F;}
</style>
<title>play</title>
<path class="st0" d="M22.540348671194675,19.006147939955337 L22.540348671194675,17.147024081806457 L9.035365729869323,17.147024081806457 L9.035365729869323,6.21100138681303 L10.997628208523434,6.21100138681303 L8.111948092855624,3.5863559400146072 L5.226267977187813,6.320361613762963 L7.188530455841924,6.320361613762963 L7.188530455841924,8.179485471911846 L3.2640054985337024,8.179485471911846 L3.2640054985337024,10.038609330060728 L7.073103251215212,10.038609330060728 L7.073103251215212,17.365744535706323 C7.073103251215212,18.349986578255734 7.881093683602199,19.224868393855203 9.035365729869323,19.224868393855203 L16.768988439859054,19.224868393855203 L16.768988439859054,21.08399225200409 L14.806725961204943,21.08399225200409 L17.692406076872754,23.817997925752447 L20.578086192540564,21.08399225200409 L18.615823713886453,21.08399225200409 L18.615823713886453,19.224868393855203 L22.540348671194675,19.224868393855203 L22.540348671194675,19.006147939955337 zM10.997628208523434,9.929249103110795 L16.768988439859054,9.929249103110795 L16.768988439859054,15.39726045060751 L18.731250918513165,15.39726045060751 L18.731250918513165,9.929249103110795 C18.731250918513165,8.945007060561386 17.92326048612618,8.070125244961911 16.768988439859054,8.070125244961911 L10.997628208523434,8.070125244961911 L10.997628208523434,9.929249103110795 z" id="svg_35" fill="black" fill-opacity="1" stroke-opacity="1" stroke="none"></path>
</svg>
